PathFileType	4	(X/Y/Z)	C:\Users\86182\Documents\cortex\Trimmed_M4_L11.trc
DataRate	CameraRate	NumFrames	NumMarkers	Units	OrigDataRate	OrigDataStartFrame	OrigNumFrames
100.00	100.00	       140	2	mm	100.00	541	       901
Frame#	Time	gripper			box			
		X1	Y1	Z1	X2	Y2	Z2	

541	5.400	274.51462	150.39180	292.48456	276.62625	147.64653	155.63348	
542	5.410	274.51343	150.39259	292.48495	276.62506	147.64635	155.63219	
543	5.420	274.51163	150.39330	292.48541	276.62363	147.64612	155.63069	
544	5.430	274.50934	150.39375	292.48584	276.62222	147.64590	155.62930	
545	5.440	274.50717	150.39394	292.48621	276.62137	147.64578	155.62851	
546	5.450	274.50583	150.39381	292.48633	276.62143	147.64578	155.62868	
547	5.460	274.50583	150.39339	292.48621	276.62238	147.64594	155.62973	
548	5.470	274.50748	150.39262	292.48575	276.62378	147.64616	155.63123	
549	5.480	274.51077	150.39153	292.48495	276.62518	147.64638	155.63269	
550	5.490	274.51535	150.39018	292.48389	276.62625	147.64655	155.63382	
551	5.500	274.52057	150.38875	292.48270	276.62683	147.64664	155.63448	
552	5.510	274.52551	150.38744	292.48157	276.62695	147.64667	155.63467	
553	5.520	274.52951	150.38637	292.48068	276.62671	147.64662	155.63448	
554	5.530	274.53217	150.38565	292.48010	276.62622	147.64656	155.63408	
555	5.540	274.53339	150.38527	292.47980	276.62573	147.64648	155.63364	
556	5.550	274.53336	150.38522	292.47980	276.62537	147.64642	155.63327	
557	5.560	274.53201	150.38551	292.48007	276.62512	147.64638	155.63290	
558	5.570	274.52927	150.38614	292.48059	276.62488	147.64633	155.63237	
559	5.580	274.52521	150.38705	292.48132	276.62460	147.64627	155.63159	
560	5.590	274.52029	150.38812	292.48209	276.62436	147.64621	155.63060	
561	5.600	274.51505	150.38914	292.48273	276.62424	147.64615	155.62943	
562	5.610	274.51007	150.38998	292.48315	276.62402	147.64606	155.62798	
563	5.620	274.50577	150.39056	292.48334	276.62357	147.64595	155.62630	
564	5.630	274.50241	150.39098	292.48334	276.62289	147.64580	155.62469	
565	5.640	274.50027	150.39131	292.48337	276.62219	147.64568	155.62364	
566	5.650	274.49966	150.39166	292.48358	276.62177	147.64561	155.62337	
567	5.660	274.50058	150.39204	292.48389	276.62177	147.64565	155.62386	
568	5.670	274.50281	150.39246	292.48422	276.62219	147.64574	155.62498	
569	5.680	274.50595	150.39294	292.48453	276.62308	147.64590	155.62669	
570	5.690	274.50958	150.39354	292.48483	276.62424	147.64612	155.62880	
571	5.700	274.51303	150.39421	292.48511	276.62546	147.64635	155.63095	
572	5.710	274.51578	150.39484	292.48532	276.62656	147.64655	155.63286	
573	5.720	274.51758	150.39531	292.48547	276.62741	147.64670	155.63434	
574	5.730	274.51843	150.39552	292.48560	276.62802	147.64682	155.63536	
575	5.740	274.51825	150.39558	292.48572	276.62836	147.64688	155.63594	
576	5.750	274.51694	150.39554	292.48587	276.62848	147.64690	155.63618	
577	5.760	274.51468	150.39549	292.48615	276.62848	147.64690	155.63620	
578	5.770	274.51199	150.39549	292.48645	276.62833	147.64688	155.63605	
579	5.780	274.50946	150.39551	292.48676	276.62817	147.64685	155.63583	
580	5.790	274.50739	150.39552	292.48703	276.62799	147.64682	155.63562	
581	5.800	274.50568	150.39543	292.48721	276.62790	147.64680	155.63547	
582	5.810	274.50424	150.39520	292.48730	276.62790	147.64680	155.63545	
583	5.820	274.50305	150.39484	292.48734	276.62796	147.64682	155.63550	
584	5.830	274.50220	150.39444	292.48730	276.62808	147.64684	155.63560	
585	5.840	274.50177	150.39406	292.48721	276.62820	147.64685	155.63571	
586	5.850	274.50183	150.39377	292.48706	276.62830	147.64687	155.63579	
587	5.860	274.50244	150.39360	292.48694	276.62836	147.64687	155.63585	
588	5.870	274.50363	150.39362	292.48676	276.62842	147.64688	155.63589	
589	5.880	274.50537	150.39384	292.48663	276.62842	147.64688	155.63593	
590	5.890	274.50775	150.39430	292.48648	276.62845	147.64688	155.63593	
591	5.900	274.51071	150.39494	292.48633	276.62845	147.64688	155.63594	
592	5.910	274.51410	150.39566	292.48615	276.62845	147.64688	155.63594	
593	5.920	274.51740	150.39630	292.48596	276.62845	147.64688	155.63594	
594	5.930	274.51974	150.39676	292.48581	276.62842	147.64688	155.63593	
595	5.940	274.52042	150.39694	292.48578	276.62842	147.64688	155.63593	
596	5.950	274.51913	150.39679	292.48590	276.62842	147.64688	155.63591	
597	5.960	274.51617	150.39638	292.48615	276.62842	147.64688	155.63589	
598	5.970	274.51251	150.39583	292.48642	276.62842	147.64688	155.63588	
599	5.980	274.50906	150.39537	292.48669	276.62842	147.64688	155.63588	
600	5.990	274.50641	150.39507	292.48694	276.62842	147.64688	155.63588	
601	6.000	274.50470	150.39494	292.48712	276.62842	147.64688	155.63588	
602	6.010	274.50385	150.39499	292.48724	276.62839	147.64688	155.63588	
603	6.020	274.50360	150.39514	292.48737	276.62839	147.64688	155.63588	
604	6.030	274.50388	150.39537	292.48743	276.62839	147.64688	155.63589	
605	6.040	274.50464	150.39569	292.48749	276.62842	147.64688	155.63594	
606	6.050	274.50592	150.39616	292.48752	276.62842	147.64688	155.63600	
607	6.060	274.50778	150.39682	292.48755	276.62845	147.64690	155.63606	
608	6.070	274.51019	150.39764	292.48758	276.62848	147.64690	155.63615	
609	6.080	274.51315	150.39861	292.48755	276.62854	147.64691	155.63622	
610	6.090	274.51685	150.39980	292.48749	276.62860	147.64691	155.63626	
611	6.100	274.52158	150.40134	292.48730	276.62866	147.64693	155.63622	
612	6.110	274.52759	150.40340	292.48706	276.62872	147.64693	155.63605	
613	6.120	274.53467	150.40599	292.48669	276.62872	147.64691	155.63568	
614	6.130	274.54202	150.40889	292.48630	276.62866	147.64688	155.63504	
615	6.140	274.54813	150.41159	292.48584	276.62845	147.64682	155.63408	
616	6.150	274.55130	150.41330	292.48535	276.62799	147.64671	155.63281	
617	6.160	274.55038	150.41328	292.48483	276.62729	147.64658	155.63133	
618	6.170	274.54568	150.41138	292.48434	276.62628	147.64641	155.62991	
619	6.180	274.53891	150.40823	292.48395	276.62518	147.64624	155.62895	
620	6.190	274.53238	150.40500	292.48380	276.62442	147.64615	155.62885	
621	6.200	274.52792	150.40259	292.48401	276.62433	147.64616	155.62967	
622	6.210	274.52618	150.40121	292.48447	276.62485	147.64629	155.63112	
623	6.220	274.52673	150.40042	292.48483	276.62567	147.64644	155.63271	
624	6.230	274.52881	150.39960	292.48486	276.62653	147.64659	155.63408	
625	6.240	274.53220	150.39864	292.48450	276.62732	147.64671	155.63504	
626	6.250	274.53729	150.39790	292.48383	276.62805	147.64682	155.63554	
627	6.260	274.54437	150.39793	292.48303	276.62872	147.64690	155.63554	
628	6.270	274.55322	150.39890	292.48218	276.62949	147.64697	155.63507	
629	6.280	274.56296	150.40056	292.48138	276.63031	147.64703	155.63420	
630	6.290	274.57202	150.40242	292.48071	276.63126	147.64709	155.63300	
631	6.300	274.57858	150.40401	292.48019	276.63220	147.64716	155.63170	
632	6.310	274.58118	150.40511	292.48004	276.63297	147.64720	155.63060	
633	6.320	274.57950	150.40579	292.48044	276.63330	147.64722	155.63007	
634	6.330	274.57440	150.40636	292.48138	276.63306	147.64720	155.63034	
635	6.340	274.56711	150.40701	292.48273	276.63226	147.64714	155.63126	
636	6.350	274.55859	150.40765	292.48431	276.63126	147.64708	155.63248	
637	6.360	274.54944	150.40796	292.48581	276.63025	147.64700	155.63365	
638	6.370	274.54007	150.40753	292.48703	276.62939	147.64696	155.63461	
639	6.380	274.53125	150.40639	292.48785	276.62878	147.64691	155.63530	
640	6.390	274.52426	150.40500	292.48834	276.62839	147.64690	155.63573	
641	6.400	274.52042	150.40399	292.48849	276.62820	147.64688	155.63597	
642	6.410	274.52066	150.40385	292.48840	276.62814	147.64687	155.63609	
643	6.420	274.52518	150.40466	292.48810	276.62820	147.64687	155.63620	
644	6.430	274.53360	150.40623	292.48758	276.62836	147.64687	155.63634	
645	6.440	274.54507	150.40822	292.48679	276.62860	147.64685	155.63658	
646	6.450	274.55823	150.41022	292.48578	276.62897	147.64685	155.63695	
647	6.460	274.57126	150.41196	292.48468	276.62939	147.64684	155.63745	
648	6.470	274.58224	150.41344	292.48380	276.62985	147.64682	155.63802	
649	6.480	274.58984	150.41483	292.48331	276.63022	147.64682	155.63849	
650	6.490	274.59323	150.41605	292.48334	276.63034	147.64680	155.63869	
651	6.500	274.59235	150.41678	292.48370	276.63022	147.64682	155.63847	
652	6.510	274.58762	150.41670	292.48431	276.62988	147.64682	155.63799	
653	6.520	274.58002	150.41583	292.48499	276.62946	147.64684	155.63739	
654	6.530	274.57111	150.41455	292.48569	276.62906	147.64685	155.63686	
655	6.540	274.56287	150.41353	292.48639	276.62875	147.64687	155.63643	
656	6.550	274.55698	150.41333	292.48709	276.62854	147.64688	155.63612	
657	6.560	274.55432	150.41405	292.48773	276.62842	147.64688	155.63593	
658	6.570	274.55487	150.41547	292.48819	276.62836	147.64688	155.63582	
659	6.580	274.55804	150.41721	292.48840	276.62833	147.64688	155.63576	
660	6.590	274.56302	150.41898	292.48840	276.62836	147.64690	155.63574	
661	6.600	274.56845	150.42052	292.48828	276.62842	147.64690	155.63571	
662	6.610	274.57288	150.42166	292.48816	276.62848	147.64690	155.63568	
663	6.620	274.57556	150.42249	292.48810	276.62854	147.64691	155.63565	
664	6.630	274.57675	150.42303	292.48816	276.62860	147.64691	155.63565	
665	6.640	274.57697	150.42334	292.48822	276.62863	147.64691	155.63568	
666	6.650	274.57660	150.42323	292.48825	276.62866	147.64690	155.63576	
667	6.660	274.57587	150.42259	292.48810	276.62869	147.64690	155.63586	
668	6.670	274.57523	150.42148	292.48776	276.62878	147.64690	155.63603	
669	6.680	274.57501	150.42018	292.48730	276.62897	147.64690	155.63618	
670	6.690	274.57532	150.41916	292.48688	276.62927	147.64690	155.63634	
671	6.700	274.57596	150.41878	292.48666	276.62970	147.64691	155.63643	
672	6.710	274.57681	150.41910	292.48666	276.63016	147.64693	155.63641	
673	6.720	274.57770	150.41988	292.48685	276.63052	147.64696	155.63622	
674	6.730	274.57828	150.42078	292.48712	276.63074	147.64699	155.63585	
675	6.740	274.57834	150.42162	292.48743	276.63068	147.64700	155.63550	
676	6.750	274.57761	150.42239	292.48779	276.63037	147.64700	155.63533	
677	6.760	274.57617	150.42325	292.48831	276.62997	147.64697	155.63541	
678	6.770	274.57458	150.42424	292.48889	276.62961	147.64694	155.63570	
679	6.780	274.57355	150.42528	292.48941	276.62943	147.64691	155.63615	
680	6.790	274.57346	150.42622	292.48978	276.62946	147.64688	155.63678	
